# xmcd CD database file
#
# Track frame offsets:
#	150
#	9937
#	27675
#	40200
#	51337
#	65250
#	83800
#	100262
#	112825
#	127850
#	138412
#	148187
#	161825
#	174200
#	186250
#	196237
#
# Disc length: 2738 seconds
#
# Revision: 3
# Processed by: cddbd v1.5.2PL0 Copyright (c) Steve Scherf et al.
# Submitted via: CDex 1.70beta2
#
DISCID=d60ab010
DTITLE=Various Artist - Country Classics - Dics 3
DYEAR=1997
DGENRE=
TTITLE0=Dave Dudley - Six Days On The Road
TTITLE1=Ferlin Husky - Convoy
TTITLE2=Johnny Dollar - Big Big Rolling Man
TTITLE3=Roger Miller - King Of The Road
TTITLE4=Red Simpson - I Got A Beaver On My Lap
TTITLE5=Bobby Bare - The Jogger
TTITLE6=Mac Wiseman - Wheels Hummin' Home
TTITLE7=Dave Dudley - There Ain't No Easy Run
TTITLE8=The Buckeroos - Rollin' Back To Tennessee
TTITLE9=Ferlin Husky - Looking At The World Through A Windshield
TTITLE10=Hank Locklin - Flying South
TTITLE11=Jack Greene - California Turn Around
TTITLE12=Kenny Rogers - Me And Bobby McGee
TTITLE13=Johnny Dollar - Big Wheels Singing For Me
TTITLE14=Ferlin Husky - Truck Driving Son Of A Gun
TTITLE15=Dave Dudley - Keep On Truckin'
EXTD=YEAR: 1997
EXTT0=
EXTT1=
EXTT2=
EXTT3=
EXTT4=
EXTT5=
EXTT6=
EXTT7=
EXTT8=
EXTT9=
EXTT10=
EXTT11=
EXTT12=
EXTT13=
EXTT14=
EXTT15=
PLAYORDER=
